# Blender v2.79 (sub 0) OBJ File: 'pot_still.blend'
# www.blender.org
mtllib pot_still.mtl
o pot_still_mesh
v 0.905090 0.124384 0.252722
v 0.990140 0.124384 -0.002428
v 0.990140 0.995070 -0.002428
v 0.741370 0.995070 0.743874
v 0.741370 0.124384 0.743874
v 0.826420 0.124384 0.488724
v 0.826420 0.000000 0.488724
v 0.905090 0.000000 0.252722
v 0.486220 0.124384 0.828925
v -0.004930 0.995070 0.992642
v -0.004930 0.124384 0.992642
v 0.250220 0.124384 0.907592
v 0.250220 0.000000 0.907592
v 0.486220 0.000000 0.828925
v -0.260080 0.124384 0.907592
v -0.751232 0.995070 0.743874
v -0.751232 0.124384 0.743874
v -0.496082 0.124384 0.828925
v -0.496082 0.000000 0.828925
v -0.260080 0.000000 0.907592
v -0.836283 0.124384 0.488724
v -1.000000 0.995070 -0.002428
v -1.000000 0.124384 -0.002428
v -0.914950 0.124384 0.252722
v -0.914950 0.000000 0.252722
v -0.836283 0.000000 0.488724
v -0.914950 0.124384 -0.257578
v -0.751232 0.995070 -0.748728
v -0.751232 0.124384 -0.748728
v -0.836283 0.124384 -0.493578
v -0.836283 0.000000 -0.493578
v -0.914950 0.000000 -0.257578
v 0.826420 0.124384 -0.493578
v 0.741370 0.124384 -0.748728
v 0.741370 0.995070 -0.748728
v 0.905090 0.124384 -0.257578
v 0.905090 0.000000 -0.257578
v 0.826420 0.000000 -0.493578
v 0.751430 0.000000 -0.326578
v 0.751430 0.124384 -0.326578
v -0.496082 0.124384 -0.833778
v -0.329084 0.124384 -0.758788
v -0.260080 0.124384 -0.912448
v -0.004930 0.124384 -0.997498
v 0.250220 0.124384 -0.912448
v 0.319220 0.124384 -0.758788
v 0.486220 0.124384 -0.833778
v 0.751430 0.124384 0.321726
v 0.319220 0.124384 0.753931
v -0.329084 0.124384 0.753931
v -0.761289 0.124384 0.321726
v -0.761289 0.124384 -0.326578
v 0.250220 0.000000 -0.912448
v 0.486220 0.000000 -0.833778
v 0.319220 0.000000 -0.758788
v -0.329084 0.000000 -0.758788
v -0.496082 0.000000 -0.833778
v -0.260080 0.000000 -0.912448
v -0.761289 0.000000 -0.326578
v -0.761289 0.000000 0.321726
v -0.329084 0.000000 0.753931
v 0.319220 0.000000 0.753931
v 0.751430 0.000000 0.321726
v 0.582160 1.616990 -0.002428
v 0.435390 1.616990 0.437890
v 0.435390 1.616990 -0.442748
v -0.445248 1.616990 -0.442748
v -0.004930 1.616990 -0.589518
v -0.004930 0.995070 -0.997498
v -0.253697 0.995070 -0.914578
v -0.445248 1.616990 0.437890
v -0.592021 1.616990 -0.002428
v -0.004930 1.616990 0.584663
v 0.243840 0.995070 -0.914578
v -0.260843 1.616990 -0.002428
v -0.196864 1.616990 -0.194368
v -0.004930 1.616990 -0.258338
v 0.187010 1.616990 -0.194368
v 0.250980 1.616990 -0.002428
v 0.187010 1.616990 0.189506
v -0.004930 1.616990 0.253485
v -0.196864 1.616990 0.189506
v -0.196864 2.985210 -0.194368
v -0.260843 2.985210 -0.002428
v -0.196864 2.985210 0.189506
v -0.004930 2.985210 0.253485
v 0.187010 2.985210 0.189506
v 0.250980 2.985210 -0.002428
v 0.187010 2.985210 -0.194368
v -0.004930 2.985210 -0.258338
v -0.196864 1.990140 -0.194368
v -0.260843 1.990140 -0.002428
v -0.196864 1.990140 0.189506
v -0.004930 1.990140 0.253485
v 0.187010 1.990140 0.189506
v 0.250980 1.990140 -0.002428
v 0.187010 1.990140 -0.194368
v -0.004930 1.990140 -0.258338
v -0.253697 0.995070 -0.997498
v 0.243840 0.497535 -0.997498
v -0.004930 0.497535 -0.997498
v -0.253697 0.497535 -0.997498
v 0.243840 0.995070 -0.997498
v -0.253697 0.497535 -0.914578
v 0.243840 0.497535 -0.914578
v 0.741370 0.533469 -0.748728
v -0.004930 0.497535 -0.997498
v 0.243840 0.497535 -0.914578
v -0.004930 0.124384 -0.002428
vt 1.000000 1.000000
vt 0.750000 0.000000
vt 0.750000 1.000000
vt 0.500000 0.000000
vt 0.500000 1.000000
vt 1.000000 0.000000
vt 0.500000 0.500000
vt 0.000000 0.500000
vt 0.000000 0.000000
vt 0.500000 0.000000
vt 0.375000 0.000000
vt 0.625000 0.000000
vt 0.625000 0.125000
vt 0.375000 0.125000
vt 0.375000 0.125000
vt 0.375000 0.000000
vt 0.625000 0.000000
vt 0.625000 0.125000
vt 0.375000 0.125000
vt 0.375000 0.000000
vt 0.625000 0.000000
vt 0.625000 0.125000
vt 0.125000 0.937500
vt 0.312500 0.687500
vt 0.312500 0.937500
vt 0.062500 0.000000
vt 0.250000 0.000000
vt 0.062500 1.000000
vt 0.000000 1.000000
vt 0.000000 0.000000
vt 1.000000 0.000000
vt 0.000000 1.000000
vt 0.000000 0.000000
vt 1.000000 0.000000
vt 0.812500 0.562500
vt 0.687500 0.562500
vt 0.750000 0.687500
vt 0.375000 0.000000
vt 0.500000 0.125000
vt 0.375000 0.125000
vt 0.625000 0.000000
vt 0.625000 0.125000
vt 0.687500 0.750000
vt 0.562500 0.687500
vt 0.562500 0.812500
vt 0.500000 0.125000
vt 0.625000 0.000000
vt 0.625000 0.125000
vt 0.375000 0.000000
vt 0.375000 0.125000
vt 0.437500 0.812500
vt 0.437500 0.687500
vt 0.312500 0.750000
vt 0.375000 0.125000
vt 0.500000 0.000000
vt 0.500000 0.125000
vt 0.625000 0.125000
vt 0.625000 0.000000
vt 0.312500 0.562500
vt 0.187500 0.562500
vt 0.250000 0.687500
vt 0.375000 0.125000
vt 0.500000 0.000000
vt 0.500000 0.125000
vt 0.625000 0.125000
vt 0.625000 0.000000
vt 0.312500 0.437500
vt 0.250000 0.312500
vt 0.187500 0.437500
vt 0.500000 0.125000
vt 0.375000 0.000000
vt 0.500000 0.000000
vt 0.625000 0.000000
vt 0.625000 0.125000
vt 0.437500 0.187500
vt 0.312500 0.250000
vt 0.437500 0.312500
vt 0.500000 0.125000
vt 0.375000 0.000000
vt 0.500000 0.000000
vt 0.625000 0.000000
vt 0.625000 0.125000
vt 0.687500 0.250000
vt 0.562500 0.187500
vt 0.562500 0.312500
vt 0.375000 0.125000
vt 0.500000 0.000000
vt 0.500000 0.125000
vt 0.625000 0.125000
vt 0.812500 0.437500
vt 0.750000 0.312500
vt 0.687500 0.437500
vt 0.375000 0.125000
vt 0.500000 0.000000
vt 0.500000 0.125000
vt 0.625000 0.125000
vt 1.000000 0.000000
vt 0.187500 1.000000
vt 0.000000 0.000000
vt 0.000000 0.000000
vt 1.000000 0.000000
vt 0.187500 1.000000
vt 0.187500 1.000000
vt 0.000000 0.000000
vt 1.000000 0.000000
vt 0.000000 0.000000
vt 1.000000 0.000000
vt 0.187500 1.000000
vt 0.187500 1.000000
vt 0.997535 0.000000
vt 0.812500 1.000000
vt 0.187500 1.000000
vt 1.000000 0.000000
vt 0.812500 1.000000
vt 0.000000 0.000000
vt 1.000000 0.000000
vt 0.187500 1.000000
vt 1.000000 0.000000
vt 0.812500 1.000000
vt 0.187500 1.000000
vt 0.687500 0.500000
vt 0.500000 0.687500
vt 0.312500 0.500000
vt 0.250000 1.000000
vt 0.437500 0.000000
vt 0.437500 1.000000
vt 0.625000 0.000000
vt 0.625000 1.000000
vt 0.375000 1.000000
vt 0.562500 0.000000
vt 0.562500 1.000000
vt 0.750000 1.000000
vt 0.750000 0.000000
vt 0.937500 0.000000
vt 0.997535 0.998749
vt 0.750000 1.000000
vt 0.750000 0.875000
vt 0.333367 0.999897
vt 0.000100 0.749950
vt 0.427365 0.717902
vt 0.250000 1.000000
vt 0.000000 0.998749
vt 0.250000 0.875000
vt 0.125000 0.500000
vt 0.000000 1.000000
vt 0.125000 1.000000
vt 0.998749 0.997535
vt 0.875000 0.500000
vt 1.000000 0.500000
vt 0.250000 0.875000
vt 0.000000 0.998749
vt 0.250000 1.000000
vt 0.997535 0.998749
vt 0.750000 0.875000
vt 0.750000 1.000000
vt 0.500000 0.937500
vt 0.687500 0.687500
vt 0.687500 0.937500
vt 0.875000 0.687500
vt 0.875000 0.937500
vt 0.500000 0.687500
vt 0.125000 0.687500
vt 0.500000 0.937500
vt 0.687500 0.687500
vt 0.687500 0.937500
vt 0.875000 0.687500
vt 0.875000 0.937500
vt 0.666632 0.000100
vt 0.999899 0.250050
vt 0.572634 0.282093
vt 1.000000 1.000000
vt 0.000000 1.000000
vt 1.000000 0.000000
vt 0.000000 0.000000
vt 1.000000 1.000000
vt 1.000000 1.000000
vt 0.375000 0.125000
vt 0.375000 0.000000
vt 0.625000 0.000000
vt 1.000000 0.125000
vt 1.000000 1.000000
vt 0.000000 1.000000
vt 0.000000 0.125000
vt 0.625000 0.125000
vt 0.375000 0.125000
vt 0.375000 0.000000
vt 0.625000 0.000000
vt 1.000000 0.125000
vt 1.000000 1.000000
vt 0.000000 1.000000
vt 0.000000 0.125000
vt 0.625000 0.125000
vt 0.375000 0.000000
vt 0.625000 0.000000
vt 0.375000 0.125000
vt 0.000000 1.000000
vt 1.000000 0.125000
vt 1.000000 1.000000
vt 0.625000 0.125000
vt 0.000000 0.125000
vt 0.500000 0.000000
vt 0.000000 0.312500
vt 0.312500 0.000000
vt 0.500000 0.500000
vt 0.000000 0.687500
vt 0.687500 0.000000
vt 0.312500 1.000000
vt 0.687500 1.000000
vt 1.000000 0.687500
vt 1.000000 0.312500
vt 0.500000 0.000000
vt 0.375000 0.000000
vt 0.375000 0.000000
vt 0.375000 0.125000
vt 0.375000 0.125000
vt 0.375000 0.000000
vt 0.625000 0.000000
vt 0.375000 0.000000
vt 0.625000 0.000000
vt 0.812500 1.000000
vt 0.812500 1.000000
vt 0.812500 1.000000
vt 0.812500 1.000000
vt 0.000000 0.000000
vt 0.000000 0.000000
vt 0.812500 1.000000
vt 0.000000 0.000000
vt 0.375000 0.375000
vt 0.500000 0.312500
vt 0.625000 0.375000
vt 0.625000 0.625000
vt 0.375000 0.625000
vt 0.375000 0.000000
vt 0.937500 1.000000
vt 0.282093 0.427364
vt 0.282092 0.608957
vt 0.000100 0.333366
vt 0.000000 0.500000
vt 0.875000 1.000000
vt 0.750000 0.500000
vt 0.750000 1.000000
vt 0.000000 1.000000
vt 0.375000 0.125000
vt 0.375000 0.000000
vt 0.625000 0.000000
vt 0.625000 0.125000
vt 1.000000 1.000000
vt 0.250000 1.000000
vt 0.250000 0.500000
vt 0.000000 0.500000
vt 0.000000 0.125000
vt 0.375000 0.125000
vt 0.375000 0.000000
vt 0.625000 0.000000
vt 1.000000 0.125000
vt 0.625000 0.125000
vt 0.500000 0.687500
vt 0.125000 0.937500
vt 0.312500 0.687500
vt 0.125000 0.687500
vt 0.312500 0.937500
vt 0.312500 0.937500
vt 0.391047 0.282094
vt 0.250050 0.000100
vt 0.608955 0.717911
vt 0.749950 0.999900
vt 0.717909 0.391048
vt 0.999897 0.666632
vt 0.717903 0.572634
vt 0.750000 0.500000
vt 0.000000 0.125000
vt 1.000000 0.125000
vt 1.000000 0.500000
vn 0.3162 0.0000 -0.9487
vn -0.3162 0.0000 -0.9487
vn 0.0000 0.0000 -1.0000
vn 0.9487 0.0000 0.3162
vn 0.3162 0.0000 0.9487
vn -0.3162 0.0000 0.9487
vn -0.9487 0.0000 -0.3162
vn 0.0000 -1.0000 0.0000
vn -0.9122 0.0000 -0.4096
vn -0.4096 0.0000 0.9122
vn 0.4096 0.0000 0.9122
vn -0.9122 0.0000 0.4096
vn 0.9122 0.0000 0.4097
vn 0.9122 0.0000 -0.4097
vn 0.4097 0.0000 -0.9122
vn -0.4097 0.0000 -0.9122
vn 0.8054 0.5284 0.2685
vn 0.8054 0.5284 -0.2685
vn -0.2685 0.5284 -0.8054
vn -0.8054 0.5284 0.2685
vn -0.2685 0.5284 0.8054
vn -0.8054 0.5284 -0.2685
vn 0.2685 0.5284 0.8054
vn 0.2685 0.5284 -0.8054
vn 0.0000 1.0000 0.0000
vn -0.9487 0.0000 0.3162
vn 0.9487 0.0000 -0.3162
vn -1.0000 0.0000 0.0000
vn 1.0000 0.0000 0.0000
vn 0.8055 0.5284 -0.2685
usemtl CopperDetails
s off
f 89/1/1 98/2/1 90/3/1
f 90/3/2 91/4/2 83/5/2
f 89/1/1 97/6/1 98/2/1
f 90/3/2 98/2/2 91/4/2
f 99/7/3 103/8/3 100/9/3 102/10/3
usemtl CopperDetails_copper_plating.png
f 7/11/4 8/12/4 1/13/4
f 6/14/4 7/11/4 1/13/4
f 12/15/5 13/16/5 14/17/5
f 12/15/5 14/17/5 9/18/5
f 18/19/6 19/20/6 20/21/6
f 18/19/6 20/21/6 15/22/6
f 91/23/7 75/24/7 92/25/7
usemtl CopperPlate
f 91/26/7 92/27/7 83/28/7
usemtl CopperPlate_copper_plating.png
f 10/29/5 11/30/5 5/31/5
f 16/32/6 17/33/6 11/34/6
f 37/35/8 39/36/8 38/37/8
f 38/38/9 40/39/9 33/40/9
f 40/39/10 37/41/10 36/42/10
f 54/43/8 55/44/8 53/45/8
f 46/46/11 54/47/11 47/48/11
f 53/49/12 46/46/12 45/50/12
f 58/51/8 56/52/8 57/53/8
f 41/54/10 56/55/10 42/56/10
f 43/57/13 56/55/13 58/58/13
f 59/59/8 32/60/8 31/61/8
f 27/62/11 59/63/11 52/64/11
f 30/65/14 59/63/14 31/66/14
f 60/67/8 26/68/8 25/69/8
f 51/70/13 26/71/13 60/72/13
f 51/70/15 25/73/15 24/74/15
f 20/75/8 19/76/8 61/77/8
f 50/78/14 20/79/14 61/80/14
f 50/78/16 19/81/16 18/82/16
f 14/83/8 13/84/8 62/85/8
f 9/86/15 62/87/15 49/88/15
f 62/87/9 12/89/9 49/88/9
f 8/90/8 7/91/8 63/92/8
f 1/93/16 63/94/16 48/95/16
f 63/94/12 6/96/12 48/95/12
f 3/97/17 65/98/17 4/99/17
f 3/100/18 35/101/18 64/102/18
f 68/103/19 69/104/19 28/105/19
f 22/106/20 16/107/20 72/108/20
f 71/109/21 10/110/21 73/111/21
f 67/112/22 22/113/22 72/114/22
f 10/115/23 4/116/23 73/117/23
f 69/118/24 68/119/24 66/120/24
f 88/121/25 90/122/25 84/123/25
f 84/124/26 92/27/26 93/125/26
f 85/126/6 94/127/6 86/128/6
f 86/129/5 95/130/5 87/131/5
f 88/132/4 87/131/4 96/133/4
f 88/132/27 96/133/27 97/134/27
f 69/135/25 99/136/25 70/137/25
f 68/138/25 67/139/25 77/140/25
f 103/141/25 69/142/25 74/143/25
f 102/144/28 70/145/28 99/146/28
f 103/147/29 105/148/29 100/149/29
f 105/150/8 101/151/8 100/152/8
f 101/153/8 104/154/8 102/155/8
f 97/156/1 77/157/1 98/158/1
f 98/158/2 76/159/2 91/160/2
f 75/24/26 82/161/26 92/25/26
f 76/162/7 75/24/7 91/23/7
f 93/163/6 81/164/6 94/165/6
f 94/165/5 80/166/5 95/167/5
f 73/168/25 65/169/25 81/170/25
f 3/171/4 4/172/4 2/173/4
f 4/172/4 5/174/4 2/173/4
f 5/31/5 4/175/5 10/29/5
f 11/34/6 10/176/6 16/32/6
f 24/177/26 25/178/26 26/179/26
f 17/180/26 16/181/26 22/182/26
f 22/182/26 23/183/26 17/180/26
f 24/177/26 26/179/26 21/184/26
f 30/185/7 31/186/7 32/187/7
f 23/188/7 22/189/7 28/190/7
f 28/190/7 29/191/7 23/188/7
f 30/185/7 32/187/7 27/192/7
f 37/193/27 38/194/27 36/195/27
f 3/196/27 34/197/27 35/198/27
f 38/194/27 33/199/27 36/195/27
f 3/196/27 2/200/27 34/197/27
f 38/38/9 39/201/9 40/39/9
f 40/39/10 39/201/10 37/41/10
f 23/202/8 29/203/8 109/204/8
f 23/202/8 109/204/8 17/205/8
f 109/204/8 29/203/8 44/206/8
f 11/207/8 17/205/8 109/204/8
f 109/204/8 5/208/8 11/207/8
f 109/204/8 2/209/8 5/208/8
f 34/210/8 2/209/8 109/204/8
f 109/204/8 44/206/8 34/210/8
f 46/46/11 55/211/11 54/47/11
f 53/49/12 55/211/12 46/46/12
f 41/54/10 57/212/10 56/55/10
f 43/57/13 42/56/13 56/55/13
f 27/62/11 32/213/11 59/63/11
f 30/65/14 52/64/14 59/63/14
f 51/70/13 21/214/13 26/71/13
f 51/70/15 60/72/15 25/73/15
f 50/78/14 15/215/14 20/79/14
f 50/78/16 61/80/16 19/81/16
f 9/86/15 14/216/15 62/87/15
f 62/87/9 13/217/9 12/89/9
f 1/93/16 8/218/16 63/94/16
f 63/94/12 7/219/12 6/96/12
f 3/97/17 64/220/17 65/98/17
f 66/221/30 64/102/30 35/101/30
f 67/222/19 68/103/19 28/105/19
f 71/223/20 72/108/20 16/107/20
f 71/109/21 16/224/21 10/110/21
f 67/112/22 28/225/22 22/113/22
f 4/116/23 65/226/23 73/117/23
f 66/120/24 35/227/24 69/118/24
f 84/123/25 85/228/25 86/229/25
f 86/229/25 87/230/25 88/121/25
f 88/121/25 89/231/25 90/122/25
f 90/122/25 83/232/25 84/123/25
f 84/123/25 86/229/25 88/121/25
f 85/126/26 84/124/26 93/125/26
f 84/124/7 83/28/7 92/27/7
f 85/126/6 93/125/6 94/127/6
f 86/129/5 94/233/5 95/130/5
f 87/131/4 95/130/4 96/133/4
f 89/234/27 88/132/27 97/134/27
f 75/235/25 76/236/25 72/237/25
f 102/144/28 104/238/28 70/145/28
f 103/147/29 74/239/29 105/148/29
f 105/240/1 74/241/1 35/242/1
f 47/243/1 54/244/1 53/245/1
f 47/243/1 53/245/1 45/246/1
f 28/247/2 70/248/2 104/249/2
f 104/249/2 101/250/2 44/251/2
f 43/252/2 58/253/2 57/254/2
f 104/249/2 44/251/2 29/255/2
f 29/255/2 28/247/2 104/249/2
f 43/252/2 57/254/2 41/256/2
f 97/156/1 78/257/1 77/157/1
f 98/158/2 77/157/2 76/159/2
f 92/25/26 82/161/26 93/163/26
f 93/163/6 82/161/6 81/164/6
f 94/165/5 81/164/5 80/166/5
f 95/258/4 79/259/4 96/260/4
f 80/261/4 79/259/4 95/258/4
f 96/262/27 78/257/27 97/156/27
f 79/259/27 78/257/27 96/262/27
f 77/140/25 67/139/25 76/236/25
f 82/263/25 73/168/25 81/170/25
f 71/264/25 73/168/25 82/263/25
f 82/263/25 75/235/25 71/264/25
f 78/265/25 68/138/25 77/140/25
f 66/266/25 68/138/25 78/265/25
f 72/237/25 71/264/25 75/235/25
f 67/139/25 72/237/25 76/236/25
f 80/267/25 81/170/25 65/169/25
f 65/169/25 64/268/25 80/267/25
f 79/269/25 80/267/25 64/268/25
f 64/268/25 66/266/25 79/269/25
f 78/265/25 79/269/25 66/266/25
f 108/270/1 35/242/1 34/271/1
f 108/270/1 34/271/1 44/272/1
f 44/272/1 107/273/1 108/270/1
l 1 2
l 5 6
l 11 12
l 9 5
l 17 18
l 15 11
l 23 24
l 21 17
l 29 30
l 27 23
l 33 34
l 106 35
l 2 36
l 29 41
l 43 44
l 44 45
l 47 34
l 73 68
l 34 106
l 101 107
l 105 108
